<?xml version="1.0" encoding="iso-8859-1"?><!DOCTYPE svg PUBLIC "-//W3C//DTD SVG 1.1//EN"
        "http://www.w3.org/Graphics/SVG/1.1/DTD/svg11.dtd">
<svg version="1.1" id="Layer_1" xmlns="http://www.w3.org/2000/svg" xmlns:xlink="http://www.w3.org/1999/xlink" x="0px" y="0px"
	 width="192.756px" height="192.756px" viewBox="0 0 192.756 192.756" style="enable-background:new 0 0 192.756 192.756;"
	 xml:space="preserve">
	<g>
		<polygon style="fill-rule:evenodd;clip-rule:evenodd;fill:#FFFFFF;" points="0,0 192.756,0 192.756,192.756 0,192.756 0,0 	"/><polygon style="fill-rule:evenodd;clip-rule:evenodd;" points="57.53,76.476 57.53,86.879 66.606,86.879 66.606,116.297
		78.485,116.297 78.485,86.879 87.562,86.879 87.562,76.476 57.53,76.476 	"/><path style="fill-rule:evenodd;clip-rule:evenodd;" d="M113.195,100.43c4.566-1.553,7.434-5.797,7.434-11.27
		c0-3.708-1.113-6.701-3.311-8.897c-2.477-2.477-6.234-3.786-10.869-3.786H90.79v39.821h11.942V104.4l7.59,11.896h15.043
		L113.195,100.43L113.195,100.43z M102.732,86.192c1.539,0.01,3.613,0.166,4.686,1.238c0.541,0.542,0.805,1.302,0.805,2.327
		c0,2.495-1.602,3.53-5.49,3.562V86.192L102.732,86.192z"/><polygon style="fill-rule:evenodd;clip-rule:evenodd;" points="139.086,116.297 139.086,76.458 127.252,76.458 127.252,116.297 
		139.086,116.297"/><polygon style="fill-rule:evenodd;clip-rule:evenodd;" points="170.957,94.805 184.135,76.502 169.486,76.502 164.016,84.936
		159.293,76.502 144.682,76.502 156.92,94.739 140.973,116.297 155.424,116.297 163.834,104.566 170.482,116.297 184.795,116.297 
		170.957,94.805"/><polygon style="fill-rule:evenodd;clip-rule:evenodd;" points="42.359,76.458 42.359,116.297 54.302,116.297 54.302,76.458
		42.359,76.458"/><path style="fill-rule:evenodd;clip-rule:evenodd;fill:#CC2131;" d="M48.33,74.038c4.137,0,7.491-3.354,7.491-7.49
		s-3.354-7.49-7.491-7.49c-4.136,0-7.49,3.354-7.49,7.49S44.194,74.038,48.33,74.038L48.33,74.038z"/><path style="fill-rule:evenodd;clip-rule:evenodd;fill:#CC2131;" d="M133.223,133.699c4.137,0,7.49-3.354,7.49-7.49
		s-3.354-7.49-7.49-7.49s-7.49,3.354-7.49,7.49S129.086,133.699,133.223,133.699L133.223,133.699z"/><path style="fill-rule:evenodd;clip-rule:evenodd;" d="M32.451,100.645c-1.771,2.932-5.246,4.818-8.76,4.818
		c-5.018,0-8.694-4.066-8.694-9.085c0-5.018,3.676-9.085,8.694-9.085c3.515,0,6.99,1.888,8.76,4.82l6.278-10.16
		c-3.795-3.956-9.124-6.43-15.039-6.43c-11.518,0-20.856,9.337-20.856,20.855c0,11.519,9.338,20.856,20.856,20.856
		c5.915,0,11.243-2.475,15.039-6.43L32.451,100.645L32.451,100.645z"/><path style="fill-rule:evenodd;clip-rule:evenodd;" d="M186.717,78.061c0-0.885,0.719-1.602,1.604-1.602s1.602,0.717,1.602,1.602
		s-0.717,1.602-1.602,1.602S186.717,78.945,186.717,78.061L186.717,78.061z M188.32,79.448c0.766,0,1.387-0.622,1.387-1.388
		s-0.621-1.388-1.387-1.388c-0.768,0-1.389,0.622-1.389,1.388S187.553,79.448,188.32,79.448L188.32,79.448z M188.611,78.112
		c0.203-0.031,0.43-0.13,0.43-0.433c0-0.42-0.377-0.509-0.756-0.509h-0.592v1.761h0.287v-0.695h0.305
		c0.32,0,0.443,0.101,0.443,0.473c0,0.099,0.006,0.158,0.023,0.222h0.289c-0.023-0.041-0.033-0.169-0.033-0.292
		C189.008,78.325,188.873,78.168,188.611,78.112L188.611,78.112z M187.98,78.025v-0.643h0.305c0.281,0,0.445,0.099,0.445,0.297
		c0,0.233-0.154,0.346-0.445,0.346H187.98L187.98,78.025z"/>
	</g>
</svg>
